<svg width="25" height="25" viewBox="0 0 25 25" fill="none" xmlns="http://www.w3.org/2000/svg">
<g clip-path="url(#clip0_181_6719)">
<path d="M10.9045 17.6823C12.8673 17.6823 15.3273 15.8737 15.3273 13.4137C15.3273 12.6937 15.1731 11.9823 14.8731 11.3223L11.4616 2.98232H17.1873L15.6788 0.09375H7.5102L12.1902 11.6566C10.193 12.0937 8.36734 13.6537 8.36734 15.4537C8.36734 16.7566 9.3102 17.6823 10.9045 17.6823C10.9319 17.6823 10.9045 17.6823 16.0045 6.17946H19.3473L22.9131 12.3337C23.6003 13.5655 23.9824 14.944 24.0273 16.3538C24.0273 20.8538 20.4788 24.0938 15.4559 24.0938H8.59877C3.56734 24.0938 0.0273438 20.8538 0.0273438 16.3538C0.0702038 14.9395 0.455914 13.568 1.14163 12.3252L4.69877 6.17945H8.04163L3.86734 13.4395C3.3588 14.3103 3.07595 15.2944 3.04448 16.3023C3.04448 19.1652 4.99877 21.2052 8.70163 21.2052H15.3531C19.0388 21.2052 21.0102 19.1652 21.0102 16.3023C20.9761 15.2936 20.6903 14.3095 20.1788 13.4395L16.0045 6.17946" fill="#009866"/>
</g>
<defs>
<clipPath id="clip0_181_6719">
<rect width="24" height="24" fill="white" transform="translate(0.0273438 0.09375)"/>
</clipPath>
</defs>
</svg>
