<svg width="24" height="24" viewBox="0 0 24 24" fill="none" xmlns="http://www.w3.org/2000/svg">
<path d="M6.8574 6.05283C6.35739 7.12328 6.5549 9.04115 6.6349 10.3824C6.09489 10.6683 5.40154 10.1666 5.00903 10.1666C4.60069 10.1666 4.11318 10.423 4.03651 10.8053C3.98151 11.0809 4.11068 11.4823 5.03737 11.8319C5.39571 11.9673 6.24822 12.1266 6.44573 12.5711C6.72323 13.1955 5.0207 16.0779 2.34731 16.4984C2.13814 16.5311 1.98897 16.7095 2.00064 16.9118C2.04731 17.6883 3.86901 17.9926 4.67652 18.112C4.75903 18.2188 4.82569 18.6696 4.93153 19.0128C4.97903 19.1665 5.10153 19.3505 5.41654 19.3505C5.82738 19.3505 6.50989 19.0479 7.69825 19.2358C8.86327 19.4214 9.9583 21 12.0608 21C14.015 21 15.1809 19.4142 16.3026 19.2358C16.9518 19.1331 17.5093 19.1658 18.1326 19.282C18.5618 19.3625 18.9468 19.4071 19.0693 19.0041C19.1768 18.656 19.2426 18.214 19.3235 18.1096C20.1235 17.991 21.9535 17.6875 21.9994 16.911C22.011 16.7087 21.8619 16.5311 21.6527 16.4976C19.0243 16.0835 17.2701 13.2098 17.5543 12.5703C17.7509 12.1266 18.5976 11.9689 18.9626 11.8312C19.641 11.5755 19.981 11.2609 19.9735 10.8969C19.9643 10.431 19.3776 10.153 18.946 10.153C18.5068 10.153 17.8759 10.65 17.3651 10.3808C17.4451 9.02841 17.6418 7.11929 17.1426 6.04965C16.1967 4.02425 14.0925 3 11.9892 3C9.89913 3 7.81075 4.00991 6.8574 6.05283Z" fill="black"/>
</svg>
