<svg width="24" height="24" viewBox="0 0 24 24" fill="none" xmlns="http://www.w3.org/2000/svg">
<path d="M22.8586 7.53282C22.8586 5.65787 21.4362 4.14958 19.6786 4.14958C17.2978 4.04167 14.8697 4 12.3884 4H11.6149C9.13957 4 6.70723 4.04167 4.32646 4.15C2.57312 4.15 1.15067 5.66662 1.15067 7.54157C1.04324 9.02445 0.997683 10.5077 1.00026 11.991C0.995964 13.4743 1.04467 14.959 1.14637 16.4451C1.14637 18.32 2.56882 19.8408 4.32216 19.8408C6.82326 19.9533 9.38882 20.0033 11.9974 19.9991C14.6102 20.0075 17.1686 19.9547 19.6725 19.8408C21.4302 19.8408 22.8526 18.32 22.8526 16.4451C22.9558 14.9576 23.003 13.4743 22.9987 11.9869C23.0085 10.5036 22.9618 9.01889 22.8586 7.53282ZM9.89592 16.0784V7.89114L16.1272 11.9827L9.89592 16.0784Z" fill="black"/>
</svg>
