<svg width="24" height="24" viewBox="0 0 24 24" fill="none" xmlns="http://www.w3.org/2000/svg">
<path d="M12.0022 2C6.47868 2 2 6.47668 2 11.9978C2 16.0906 4.46484 19.6077 7.98794 21.1564C7.96115 20.4602 7.98348 19.6211 8.16209 18.8623C8.3541 18.05 9.44809 13.4126 9.44809 13.4126C9.44809 13.4126 9.12659 12.7744 9.12659 11.8326C9.12659 10.3508 9.98392 9.24392 11.0556 9.24392C11.9665 9.24392 12.4041 9.9268 12.4041 10.7436C12.4041 11.6586 11.8192 13.0243 11.52 14.2919C11.2699 15.3542 12.0514 16.2156 13.1007 16.2156C14.994 16.2156 16.271 13.7831 16.271 10.8998C16.271 8.70832 14.793 7.0703 12.1094 7.0703C9.07747 7.0703 7.18419 9.33318 7.18419 11.8594C7.18419 12.7297 7.44318 13.3457 7.84505 13.8188C8.02813 14.0375 8.05492 14.1268 7.98794 14.3767C7.93883 14.5597 7.83166 15.0016 7.78254 15.1801C7.71556 15.4345 7.51016 15.5238 7.28243 15.43C5.8848 14.8587 5.23286 13.3323 5.23286 11.6095C5.23286 8.77081 7.63072 5.36532 12.3818 5.36532C16.1996 5.36532 18.7136 8.1281 18.7136 11.0917C18.7136 15.015 16.53 17.9429 13.315 17.9429C12.2344 17.9429 11.2208 17.3582 10.8725 16.6976C10.8725 16.6976 10.292 19.0007 10.167 19.447C9.95713 20.2191 9.54186 20.9868 9.16231 21.5894C10.083 21.8609 11.0378 21.9991 11.9978 22C17.5213 22 22 17.5233 22 12.0022C22 6.48114 17.5258 2 12.0022 2Z" fill="black"/>
</svg>
