<svg width="24" height="24" viewBox="0 0 24 24" fill="none" xmlns="http://www.w3.org/2000/svg">
<path d="M22 5.89583C21.2498 6.22181 20.456 6.43658 19.6438 6.53333C20.4974 6.03349 21.1393 5.23941 21.4492 4.30001C20.6421 4.77192 19.7606 5.10303 18.8425 5.27917C18.4559 4.87397 17.9909 4.55163 17.4758 4.33173C16.9607 4.11183 16.4063 3.99897 15.8463 4.00001C13.5788 4.00001 11.7438 5.80833 11.7438 8.03749C11.7421 8.34756 11.7777 8.65671 11.8496 8.95832C10.2236 8.8821 8.63147 8.46732 7.17499 7.74052C5.71852 7.01372 4.42979 5.9909 3.39125 4.7375C3.02691 5.35172 2.83422 6.05252 2.83333 6.76666C2.83333 8.16666 3.56375 9.40416 4.66667 10.1292C4.01322 10.1136 3.37316 9.9407 2.80083 9.62499V9.67499C2.80083 11.6333 4.2175 13.2625 6.0925 13.6333C5.73991 13.7273 5.37657 13.7749 5.01167 13.775C4.75274 13.7754 4.4944 13.7503 4.24042 13.7C4.76167 15.3041 6.27875 16.4708 8.07583 16.5041C6.61557 17.6295 4.82276 18.2378 2.97917 18.2333C2.65192 18.2328 2.32499 18.2133 2 18.175C3.87549 19.3725 6.0556 20.006 8.28083 20C15.8375 20 19.9658 13.8458 19.9658 8.50833C19.9658 8.33333 19.9613 8.15833 19.9529 7.98749C20.7542 7.41752 21.4474 6.70921 22 5.89583Z" fill="black"/>
</svg>
